<svg version="1.2" xmlns="http://www.w3.org/2000/svg" viewBox="0 0 476 115" width="476" height="115"><style>.a{fill:#ffca01}.b{fill:#fff}.c{fill:#444445}.d{fill:#ffd95f}</style><path class="a" d="m189 9.6c0.3-1.9 0.9-2.4 2.3-2.4h17.8c1.4 0 2.2 0.5 1.9 2.4l-12.4 73.7c-0.5 2.9-0.4 5.2 0.3 6.2 0.7 1.4 2.5 2.4 5.3 2.4h33.7c1.4 0 2.2 0.4 2 1.8l-1.8 10.9c-0.4 1.9-1.4 2.9-2.9 2.9-5.7 0.4-11.4 0.9-18.5 1.4-6.5 0-13.6 0.5-20.6 0.5q-7.1-0.1-11-1.5c-3.2-0.4-5.3-1.8-6.9-3.8-1.6-1.4-2.6-3.7-3.2-6.1-0.4-2.8 0.1-6.1 0.8-9.9z"/><path class="a" d="m58.1 22.8c-5.6 0-10.5 0.9-13.9 1.9-3.5 1.4-6.7 3.3-9 6.1-2.8 2.9-4.3 6.2-5.9 10-1.7 4.2-2.5 9-3.4 14.6l-0.6 3.8c-0.9 5.2-1.3 10-1.5 14.2q0.3 6.4 2.5 9.9c1.4 2.9 3.4 5.2 6.5 6.2 2.6 1.4 6.1 2.4 10.8 2.4 2.8 0 6.2-0.5 9.6-1l4.1-24.6h-12.2c-1.8 0-2.7-0.4-2.4-2.4l2.2-12.7c0.2-1.4 1.3-2.4 3.2-2.4h31.8c1.4 0 2.2 1 2 2.4l-8 47.3c-0.3 1.9-1.1 3.8-1.8 5.2-1.1 0.9-2.7 1.9-4.6 2.4-5 1.4-9.7 1.8-14.5 2.3-4.7 0.5-10 1-16.1 1-7.4 0-13.8-1.5-19-3.8-4.7-2.4-8.9-5.7-11.4-10q-3.9-6.3-4.4-15.6c-0.9-5.6-0.2-12.7 1.1-20.3l0.8-5.2c1.4-8 3.1-15.1 6-21.3 2.4-6.1 6.1-11.3 10-15.1 4.5-4.3 9.7-7.6 15.6-9.5 6.1-2.3 13.3-3.3 21.2-3.3 4.7 0 9.3 0.5 14.4 1 5 0.9 9 1.8 12.6 2.8 0.9 0.5 1.3 0.5 1.2 0.9 0.4 0.5 0.4 1 0.3 1.5l-1.8 10.4c-0.2 1.4-0.8 2.3-2.7 2.3-3.7-0.5-7.3-0.9-11.1-0.9-3.7-0.5-7.4-0.5-11.6-0.5z"/><path fill-rule="evenodd" class="b" d="m398.2 36.6l-0.8 4.9c-0.9 5.2-2.2 10.1-4.4 14.4q-2.4 5.8-7.4 10.1c-3.3 2.9-7 4.9-11.5 6.3-5.1 1.5-10.5 2.4-16.7 2.4-2.4 0-4.7 0.1-7.5-0.4-2.4 0-4.8 0.1-7.6-0.4l-5.6 33.4c-0.2 1.4-0.9 2.7-2.8 2.7h-16.7c-1.4 0-2.2-1.3-1.9-2.7l15.1-90.4c0.4-2.4 1.2-4.4 2-5.8q1.8-2.2 4.7-2.9c4.5-1 8.9-1.4 14.2-1.9 5.3-0.5 10.2-1 15.4-1 12.9 0 22 2.9 26.9 7.7 4.8 5.3 6.3 13.5 4.6 23.6zm-23-10.6c-1.9-2.9-6.5-4.3-12.6-4.3-2 0-4 0.5-5.9 0.5-1.9 0-3.9 0.4-5.9 0.9l-5.7 34.2c1.8 0.5 3.7 0.5 5.6 0.5 1.9 0 3.8 0.5 5.7 0.5 6.2 0 11.2-1.4 14.1-4.3 2.8-2.9 4.5-7.3 5.4-12.5l0.6-3.4c0.9-5.3 0.6-9.2-1.3-12.1z"/><path fill-rule="evenodd" class="b" d="m475.6 36.6l-0.8 4.9c-0.9 5.2-2.1 10.1-4.3 14.4q-2.4 5.8-7.4 10.1c-3.4 2.9-7.1 4.9-11.6 6.3-5 1.5-10.4 2.4-16.6 2.4-2.4 0-4.8 0.1-7.6-0.4-2.4 0-4.7 0.1-7.5-0.4l-5.6 33.4c-0.3 1.4-0.9 2.7-2.8 2.7h-16.7c-1.4 0-2.2-1.3-2-2.7l15.2-90.4c0.4-2.4 1.2-4.4 1.9-5.8q1.8-2.2 4.8-2.9c4.4-1 8.8-1.4 14.2-1.9 5.3-0.5 10.1-1 15.4-1 12.9 0 21.9 2.9 26.8 7.7 4.9 5.3 6.4 13.5 4.6 23.6zm-23-10.6c-1.9-2.9-6.4-4.3-12.6-4.3-1.9 0-3.9 0.5-5.8 0.5-1.9 0-3.9 0.4-5.9 0.9l-5.8 34.2c1.9 0.5 3.8 0.5 5.7 0.5 1.9 0 3.7 0.5 5.6 0.5 6.2 0 11.2-1.4 14.1-4.3 2.9-2.9 4.6-7.3 5.5-12.5l0.5-3.4c0.9-5.3 0.6-9.2-1.3-12.1z"/><path fill-rule="evenodd" class="b" d="m309.3 106.4c-0.1 0.4-0.3 1.9-0.8 2.3-0.1 0.5-0.7 1.3-1.6 1.3h-17.7c-1.9 0-2.7-0.6-2.5-2l-1.3-18h-31.5l-7.7 18c-0.3 1.4-1.3 2-3.2 2h-17.7c-0.5 0-1.3-0.9-1.3-1.4-0.3-0.5-0.2-1.9-0.1-2.4l42.5-96.7c0.8-1.9 2.4-3.5 4.3-3.5h25.3c1.9 0 3.1 1.6 3.3 3.5zm-25.2-35.3l-3.5-46.8-19.4 46.8z"/><path fill-rule="evenodd" class="c" d="m165.6 23c16.8 17.6 18.2 44.3 4.6 63.4q0 0.1 0 0.1-2.8 3.9-6.3 7.3-1.8 1.7-3.7 3.2v0.2q-0.1 0-0.4 0.1c-11 8.4-24.6 11.6-37.6 9.8-10.8-1.6-21.1-6.6-29.2-15.1-19-20-18.2-51.8 1.8-70.8 20-19.1 51.8-18.3 70.8 1.8zm-74.4 4l4 4.1c5.3-3.5 14-5.9 18.3-6.6 4.1-5.8 10.3-10.4 13.2-12.4l-2-3.2c-10.5 1-20.8 5.4-29 13.2q-2.4 2.3-4.5 4.9zm-6.7 38.4c-1.4 5.1 4 15.9 6.1 19.8 5 3.6 13 6.4 16.8 7.6 1.8-1.9 6.4-8.4 8.9-12.2-6.5-8.4-8.5-19.1-9-22.8-2.8-0.9-9.2-3.1-14.7-3.8-2.3 2.3-6.1 6.6-8.1 11.4zm56.3 33.1c6.9 0.3 15.9-1.8 18.4-2.4q2-1.5 3.8-3.2 3.4-3.3 6.1-7.1c2.7-4.9 0.6-15.6-0.4-20.2-6.7 1.5-11.3 2-15.7 1.7-2.1 3.6-7.8 12.5-14.6 17.5 1 3.5 2.1 11.5 2.4 13.7zm-3.3-14.6c6.4-4.6 11.9-13.1 14.2-16.8-0.7-4.6-3.4-14.9-6.1-19.3-4-1.6-14.7-5.3-24.3-4.9l-12.6 15.4c0.6 4.1 2.9 14.4 9.2 22.2 8.3 1 15.8 2.5 19.6 3.4zm-15.7-42.3c8.7-0.2 17.9 2.6 22.6 4.4 3.7-3.9 10.5-11.3 12.7-13.4-3.5-9-9.1-14.9-11.4-17.1-4.8-1.9-14.9-2.5-17.8-2.7-2.5 1.7-9 6.5-13.2 12.3 3.1 5 6.4 14.3 7.1 16.5zm27.7-28.5c-0.5 0.4-1.2 1.1-2.3 2.1 2.9 2.8 8.3 9 11.6 18.1 4.8 2.9 11.1 9.3 12.9 11.2l3.8-2.8c-2.2-6.5-5.8-12.6-10.8-17.8-4.5-4.7-9.6-8.3-15.2-10.8zm26.4 29.9l-3.7 2.7c0 2.8-0.2 13.4-2.5 18.6 0.8 3 2.6 11.5 1.8 17.8 6.9-11.9 8.4-26.2 4.4-39.1zm-19.4 55.1c-4.3 0.9-11.4 2.1-17 1.6-4.6 2.1-11.8 3.9-16.7 4.6l-0.3 1.5c11.6 1.7 23.8-0.9 34-7.7zm-35.3 7.5l0.3-1.6c-4.4-1.9-10.1-5.6-13.9-9.8-3.4-1-11.6-3.7-17-7.5l-0.4 0.1q1.7 2.2 3.7 4.3c7.6 8 17.2 12.8 27.3 14.5zm-40.3-42.4c0.6 0.4 1.5 0.9 2.5 1.5 2-4.8 5.7-9 8.1-11.4-0.1-5.3 1.2-17.8 2.8-21.2l-3.9-4.1c-7.8 10.3-11 23-9.5 35.2z"/><path fill-rule="evenodd" class="c" d="m165.6 23c16.8 17.6 18.2 44.3 4.6 63.4q0 0.1 0 0.1-2.8 3.9-6.3 7.3-1.8 1.7-3.7 3.2v0.2q-0.1 0-0.4 0.1c-11 8.4-24.6 11.6-37.6 9.8-10.8-1.6-21.1-6.6-29.2-15.1-19-20-18.2-51.8 1.8-70.8 20-19.1 51.8-18.3 70.8 1.8zm-74.4 4l4 4.1c5.3-3.5 14-5.9 18.3-6.6 4.1-5.8 10.3-10.4 13.2-12.4l-2-3.2c-10.5 1-20.8 5.4-29 13.2q-2.4 2.3-4.5 4.9zm-6.7 38.4c-1.4 5.1 4 15.9 6.1 19.8 5 3.6 13 6.4 16.8 7.6 1.8-1.9 6.4-8.4 8.9-12.2-6.5-8.4-8.5-19.1-9-22.8-2.8-0.9-9.2-3.1-14.7-3.8-2.3 2.3-6.1 6.6-8.1 11.4zm56.3 33.1c6.9 0.3 15.9-1.8 18.4-2.4q2-1.5 3.8-3.2 3.4-3.3 6.1-7.1c2.7-4.9 0.6-15.6-0.4-20.2-6.7 1.5-11.3 2-15.7 1.7-2.1 3.6-7.8 12.5-14.6 17.5 1 3.5 2.1 11.5 2.4 13.7zm-3.3-14.6c6.4-4.6 11.9-13.1 14.2-16.8-0.7-4.6-3.4-14.9-6.1-19.3-4-1.6-14.7-5.3-24.3-4.9l-12.6 15.4c0.6 4.1 2.9 14.4 9.2 22.2 8.3 1 15.8 2.5 19.6 3.4zm-15.7-42.3c8.7-0.2 17.9 2.6 22.6 4.4 3.7-3.9 10.5-11.3 12.7-13.4-3.5-9-9.1-14.9-11.4-17.1-4.8-1.9-14.9-2.5-17.8-2.7-2.5 1.7-9 6.5-13.2 12.3 3.1 5 6.4 14.3 7.1 16.5zm27.7-28.5c-0.5 0.4-1.2 1.1-2.3 2.1 2.9 2.8 8.3 9 11.6 18.1 4.8 2.9 11.1 9.3 12.9 11.2l3.8-2.8c-2.2-6.5-5.8-12.6-10.8-17.8-4.5-4.7-9.6-8.3-15.2-10.8zm26.4 29.9l-3.7 2.7c0 2.8-0.2 13.4-2.5 18.6 0.8 3 2.6 11.5 1.8 17.8 6.9-11.9 8.4-26.2 4.4-39.1zm-19.4 55.1c-4.3 0.9-11.4 2.1-17 1.6-4.6 2.1-11.8 3.9-16.7 4.6l-0.3 1.5c11.6 1.7 23.8-0.9 34-7.7zm-35.3 7.5l0.3-1.6c-4.4-1.9-10.1-5.6-13.9-9.8-3.4-1-11.6-3.7-17-7.5l-0.4 0.1q1.7 2.2 3.7 4.3c7.6 8 17.2 12.8 27.3 14.5zm-40.3-42.4c0.6 0.4 1.5 0.9 2.5 1.5 2-4.8 5.7-9 8.1-11.4-0.1-5.3 1.2-17.8 2.8-21.2l-3.9-4.1c-7.8 10.3-11 23-9.5 35.2z"/><path fill-rule="evenodd" class="c" d="m165.6 23c16.8 17.6 18.2 44.3 4.6 63.4q0 0.1 0 0.1-2.8 3.9-6.3 7.3-1.8 1.7-3.7 3.2v0.2q-0.1 0-0.4 0.1c-11 8.4-24.6 11.6-37.6 9.8-10.8-1.6-21.1-6.6-29.2-15.1-19-20-18.2-51.8 1.8-70.8 20-19.1 51.8-18.3 70.8 1.8zm-74.4 4l4 4.1c5.3-3.5 14-5.9 18.3-6.6 4.1-5.8 10.3-10.4 13.2-12.4l-2-3.2c-10.5 1-20.8 5.4-29 13.2q-2.4 2.3-4.5 4.9zm-6.7 38.4c-1.4 5.1 4 15.9 6.1 19.8 5 3.6 13 6.4 16.8 7.6 1.8-1.9 6.4-8.4 8.9-12.2-6.5-8.4-8.5-19.1-9-22.8-2.8-0.9-9.2-3.1-14.7-3.8-2.3 2.3-6.1 6.6-8.1 11.4zm56.3 33.1c6.9 0.3 15.9-1.8 18.4-2.4q2-1.5 3.8-3.2 3.4-3.3 6.1-7.1c2.7-4.9 0.6-15.6-0.4-20.2-6.7 1.5-11.3 2-15.7 1.7-2.1 3.6-7.8 12.5-14.6 17.5 1 3.5 2.1 11.5 2.4 13.7zm-3.3-14.6c6.4-4.6 11.9-13.1 14.2-16.8-0.7-4.6-3.4-14.9-6.1-19.3-4-1.6-14.7-5.3-24.3-4.9l-12.6 15.4c0.6 4.1 2.9 14.4 9.2 22.2 8.3 1 15.8 2.5 19.6 3.4zm-15.7-42.3c8.7-0.2 17.9 2.6 22.6 4.4 3.7-3.9 10.5-11.3 12.7-13.4-3.5-9-9.1-14.9-11.4-17.1-4.8-1.9-14.9-2.5-17.8-2.7-2.5 1.7-9 6.5-13.2 12.3 3.1 5 6.4 14.3 7.1 16.5zm27.7-28.5c-0.5 0.4-1.2 1.1-2.3 2.1 2.9 2.8 8.3 9 11.6 18.1 4.8 2.9 11.1 9.3 12.9 11.2l3.8-2.8c-2.2-6.5-5.8-12.6-10.8-17.8-4.5-4.7-9.6-8.3-15.2-10.8zm26.4 29.9l-3.7 2.7c0 2.8-0.2 13.4-2.5 18.6 0.8 3 2.6 11.5 1.8 17.8 6.9-11.9 8.4-26.2 4.4-39.1zm-19.4 55.1c-4.3 0.9-11.4 2.1-17 1.6-4.6 2.1-11.8 3.9-16.7 4.6l-0.3 1.5c11.6 1.7 23.8-0.9 34-7.7zm-35.3 7.5l0.3-1.6c-4.4-1.9-10.1-5.6-13.9-9.8-3.4-1-11.6-3.7-17-7.5l-0.4 0.1q1.7 2.2 3.7 4.3c7.6 8 17.2 12.8 27.3 14.5zm-40.3-42.4c0.6 0.4 1.5 0.9 2.5 1.5 2-4.8 5.7-9 8.1-11.4-0.1-5.3 1.2-17.8 2.8-21.2l-3.9-4.1c-7.8 10.3-11 23-9.5 35.2z"/><path fill-rule="evenodd" class="a" d="m165.3 95.4c-20.9 19.8-54 19-73.9-1.9-19.8-20.9-19-54 1.9-73.9 20.9-19.8 54-19 73.9 1.9 19.9 20.9 19 54-1.9 73.9zm-13.3 4.4c-4 0.6-8.5 1.1-12.3 0.7-4.9 2.1-11.7 3.8-16.2 4.5v0.1q0.9 0.1 1.8 0.2 0.4 0 0.7 0 3.3 0.2 6.5 0 0.2 0 0.4 0 3.4-0.2 6.6-0.9 0.1-0.1 0.2-0.1 2.1-0.4 4.1-1.1 0.2 0 0.4-0.1 3-1 6-2.4 0.3-0.2 0.7-0.3 0.5-0.3 1.1-0.6zm-59.7-72.8l3 3.1c5.5-3.5 13.7-5.6 17.7-6.3 3.8-5.3 9.3-9.6 12.6-11.9l-1.3-2.1q-0.9 0.1-1.9 0.3c-9.9 1.4-19 5.8-26.1 12.6q-2.1 2.1-4 4.3zm80.8 19.1c-0.1 3.5-0.4 13.1-2.5 18.3 0.7 2.8 1.9 8.6 1.9 13.9q0.2-0.5 0.5-0.9c4.5-10.1 5.6-21.7 2.4-33zm-22.2 20.7c-0.7-4.3-3.2-14.1-5.8-18.4-4.2-1.6-14.2-5.1-23.3-4.8l-12.2 14.8c0.7 4.2 2.9 13.8 8.8 21.2 8.8 1.1 16.4 2.7 19 3.3 6-4.5 11.3-12.6 13.5-16.1zm-5.6-50.7c-4.5-1.8-13.8-2.4-17-2.5-2.7 1.8-8.6 6.1-12.5 11.4 2.8 4.9 5.7 13 6.7 15.7 8.3-0.1 17 2.5 21.8 4.2 3.3-3.5 9.5-10.1 11.9-12.6-3.4-8.5-8.7-14.1-10.9-16.2zm-54 68.5c4.8 3.3 12.4 6 15.9 7.2 1.8-2.1 5.7-7.6 8.2-11.3-6-8.1-8.1-17.8-8.8-22.1-2.7-1-8.6-2.9-13.6-3.7-2.2 2.3-5.8 6.4-7.7 10.9-1.3 4.8 4.2 15.5 6 19zm83.3-43.3c-2.2-6.1-5.7-11.9-10.4-16.9-4.3-4.5-9.2-8-14.5-10.4l-1.2 1.1q0.2 0.3 0.4 0.5c3 3.2 7.6 9 10.6 17.1 4.5 2.8 10.1 8.3 12.4 10.6zm-84-12.1c-7.1 9.9-10.1 21.9-8.8 33.5q0.6 0.3 1.3 0.7c2-4.3 5.2-8 7.6-10.5 0-5.1 1.2-16.6 2.7-20.7zm30.1 75.3v-0.1c-3.8-1.7-9.4-5.2-13.4-9.6-2.8-0.8-8.6-2.7-13.6-5.4q0.5 0.5 1 1c7.2 7.7 16.4 12.4 26 14.1zm38.2-9.2q1.8-1.5 3.6-3.1 3.5-3.4 6.2-7.2c2.1-4.3 0.5-13.8-0.5-18.5-5.9 1.3-10.2 1.8-14.6 1.6-2.3 3.8-7.7 12-14.1 16.9 0.8 3.4 1.8 9.8 2.1 12.6 6.5 0.2 14.5-1.7 17.3-2.3z"/><path class="d" d="m136.9 83.9c-7-1.3-15.4-2.9-19.8-2.8-2.7 3.2-6 7.6-9.1 12.4l10-10.2z"/><path class="d" d="m113.2 24.9c-5.6 1.3-13.9 4.1-18.3 6.9-1.3 3.4-2.8 16.6-2.7 20.8l4.5-19.8z"/><path class="d" d="m157.9 33.6c-3.4 2.8-8.9 8.4-11.9 12.6 2.5 6.4 4.8 13.6 6.7 19.4l-4.3-19.3z"/></svg>